<svg version="1.1" id="Calque_1" xmlns="http://www.w3.org/2000/svg" xmlns:xlink="http://www.w3.org/1999/xlink" x="0px" y="0px"
	 viewBox="0 0 44 44" style="enable-background:new 0 0 44 44;" xml:space="preserve">

<path fill="black" class="st0" d="M42.6,20.2c-0.3-0.7-0.6-1.3-1.1-2L33.3,7.8c-0.8-1.1-1.6-1.8-2.4-2.3c-0.8-0.4-1.7-0.6-2.7-0.6
	c-1.5,0-2.6,0.4-3.5,1.3c-0.9,0.8-1.4,1.9-1.4,3.3c0,0.6,0.1,1.3,0.4,2.1c0.2,0.7,0.6,1.5,1.1,2.3l2.1,3.4H6.6
	c-1.8,0-3.2,0.4-4.2,1.3c-1,0.8-1.4,2.1-1.4,3.6c0,1.5,0.5,2.7,1.5,3.5c1,0.9,2.4,1.3,4.1,1.3h20.2l-2.1,3.4
	c-0.5,0.8-0.8,1.6-1.1,2.3c-0.2,0.7-0.4,1.4-0.4,2.1c0,1.3,0.5,2.4,1.4,3.3c0.9,0.8,2.1,1.3,3.5,1.3c1,0,1.9-0.2,2.7-0.7
	c0.8-0.4,1.6-1.2,2.4-2.2l8.1-10.4c0.5-0.6,0.9-1.3,1.1-2c0.3-0.7,0.4-1.3,0.4-2C43,21.5,42.9,20.9,42.6,20.2z"/>
</svg>
